<?xml version="1.0" standalone="no"?>
<svg id="visual" viewBox="0 0 960 540" width="960" height="540" xmlns="http://www.w3.org/2000/svg" xmlns:xlink="http://www.w3.org/1999/xlink" version="1.1">
    <rect x="0" y="0" width="960" height="540" fill="#f4f4f4"></rect>
    <defs>
        <linearGradient id="grad1_0" x1="43.8%" y1="0%" x2="100%" y2="100%">
            <stop offset="14.444444444444446%" stop-color="#ff0066" stop-opacity="1"></stop>
            <stop offset="85.55555555555554%" stop-color="#ff0066" stop-opacity="1"></stop>
        </linearGradient>
    </defs>
    <defs>
        <linearGradient id="grad1_1" x1="43.8%" y1="0%" x2="100%" y2="100%">
            <stop offset="14.444444444444446%" stop-color="#ff0066" stop-opacity="1"></stop>
            <stop offset="85.55555555555554%" stop-color="#ff7992" stop-opacity="1"></stop>
        </linearGradient>
    </defs>
    <defs>
        <linearGradient id="grad1_2" x1="43.8%" y1="0%" x2="100%" y2="100%">
            <stop offset="14.444444444444446%" stop-color="#ffb9c2" stop-opacity="1"></stop>
            <stop offset="85.55555555555554%" stop-color="#ff7992" stop-opacity="1"></stop>
        </linearGradient>
    </defs>
    <defs>
        <linearGradient id="grad1_3" x1="43.8%" y1="0%" x2="100%" y2="100%">
            <stop offset="14.444444444444446%" stop-color="#ffb9c2" stop-opacity="1"></stop>
            <stop offset="85.55555555555554%" stop-color="#f4f4f4" stop-opacity="1"></stop>
        </linearGradient>
    </defs>
    <defs>
        <linearGradient id="grad2_0" x1="0%" y1="0%" x2="56.3%" y2="100%">
            <stop offset="14.444444444444446%" stop-color="#ff0066" stop-opacity="1"></stop>
            <stop offset="85.55555555555554%" stop-color="#ff0066" stop-opacity="1"></stop>
        </linearGradient>
    </defs>
    <defs>
        <linearGradient id="grad2_1" x1="0%" y1="0%" x2="56.3%" y2="100%">
            <stop offset="14.444444444444446%" stop-color="#ff7992" stop-opacity="1"></stop>
            <stop offset="85.55555555555554%" stop-color="#ff0066" stop-opacity="1"></stop>
        </linearGradient>
    </defs>
    <defs>
        <linearGradient id="grad2_2" x1="0%" y1="0%" x2="56.3%" y2="100%">
            <stop offset="14.444444444444446%" stop-color="#ff7992" stop-opacity="1"></stop>
            <stop offset="85.55555555555554%" stop-color="#ffb9c2" stop-opacity="1"></stop>
        </linearGradient>
    </defs>
    <defs>
        <linearGradient id="grad2_3" x1="0%" y1="0%" x2="56.3%" y2="100%">
            <stop offset="14.444444444444446%" stop-color="#f4f4f4" stop-opacity="1"></stop>
            <stop offset="85.55555555555554%" stop-color="#ffb9c2" stop-opacity="1"></stop>
        </linearGradient>
    </defs>
    <g transform="translate(960, 0)">
        <path d="M0 351C-36.4 347.4 -72.8 343.8 -108.5 333.8C-144.1 323.8 -179.1 307.4 -205.7 283.2C-232.4 258.9 -250.7 226.9 -271 196.9C-291.3 166.9 -313.5 138.8 -327.2 106.3C-340.8 73.8 -345.9 36.9 -351 0L0 0Z" fill="#fdd7db"></path>
        <path d="M0 263.3C-27.3 260.6 -54.6 257.9 -81.3 250.4C-108.1 242.9 -134.3 230.5 -154.3 212.4C-174.3 194.2 -188.1 170.2 -203.3 147.7C-218.5 125.2 -235.1 104.1 -245.4 79.7C-255.6 55.4 -259.4 27.7 -263.2 0L0 0Z" fill="#ff9baa"></path>
        <path d="M0 175.5C-18.2 173.7 -36.4 171.9 -54.2 166.9C-72.1 161.9 -89.5 153.7 -102.9 141.6C-116.2 129.5 -125.4 113.5 -135.5 98.5C-145.7 83.4 -156.8 69.4 -163.6 53.2C-170.4 36.9 -173 18.5 -175.5 0L0 0Z" fill="#ff527c"></path>
        <path d="M0 87.8C-9.1 86.9 -18.2 86 -27.1 83.5C-36 81 -44.8 76.8 -51.4 70.8C-58.1 64.7 -62.7 56.7 -67.8 49.2C-72.8 41.7 -78.4 34.7 -81.8 26.6C-85.2 18.5 -86.5 9.2 -87.7 0L0 0Z" fill="#ff0066"></path>
    </g>
    <g transform="translate(0, 540)">
        <path d="M0 -351C32.8 -335.4 65.6 -319.8 101 -311C136.5 -302.2 174.4 -300.1 206.3 -284C238.2 -267.8 263.9 -237.6 283.2 -205.7C302.4 -173.8 315 -140.3 325.3 -105.7C335.5 -71.1 343.2 -35.6 351 0L0 0Z" fill="#fdd7db"></path>
        <path d="M0 -263.2C24.6 -251.6 49.2 -239.9 75.8 -233.2C102.3 -226.6 130.8 -225.1 154.7 -213C178.6 -200.9 198 -178.2 212.4 -154.3C226.8 -130.4 236.3 -105.2 243.9 -79.3C251.6 -53.3 257.4 -26.7 263.3 0L0 0Z" fill="#ff9baa"></path>
        <path d="M0 -175.5C16.4 -167.7 32.8 -159.9 50.5 -155.5C68.2 -151.1 87.2 -150.1 103.2 -142C119.1 -133.9 132 -118.8 141.6 -102.9C151.2 -86.9 157.5 -70.1 162.6 -52.8C167.7 -35.6 171.6 -17.8 175.5 0L0 0Z" fill="#ff527c"></path>
        <path d="M0 -87.7C8.2 -83.9 16.4 -80 25.3 -77.7C34.1 -75.5 43.6 -75 51.6 -71C59.5 -67 66 -59.4 70.8 -51.4C75.6 -43.5 78.8 -35.1 81.3 -26.4C83.9 -17.8 85.8 -8.9 87.8 0L0 0Z" fill="#ff0066"></path>
    </g>
</svg>